<svg width="16" height="16" viewBox="0 0 16 16" fill="none" xmlns="http://www.w3.org/2000/svg">
<path fill-rule="evenodd" clip-rule="evenodd" d="M12.5 2H14.3333C15.0697 2 15.6667 2.59695 15.6667 3.33333V14.6667C15.6667 15.403 15.0697 16 14.3333 16H1.66667C0.93029 16 0.333336 15.403 0.333336 14.6667V3.33333C0.333336 2.59695 0.93029 2 1.66667 2H2.66667C2.85076 2 3 2.14924 3 2.33333V3.83333C3 4.10948 3.22386 4.33333 3.5 4.33333C3.77614 4.33333 4 4.10948 4 3.83333V0.666667C4 0.298477 4.29848 0 4.66667 0C5.03486 0 5.33334 0.298477 5.33334 0.666667V1.834C5.3337 1.92579 5.40821 2 5.5 2H9.66667C9.85076 2 10 2.14924 10 2.33333V3.83333C10 4.10948 10.2239 4.33333 10.5 4.33333C10.7761 4.33333 11 4.10948 11 3.83333V0.666667C11 0.298477 11.2985 0 11.6667 0C12.0349 0 12.3333 0.298477 12.3333 0.666667V1.83333C12.3333 1.92538 12.408 2 12.5 2ZM2 14.6667H14C14.1841 14.6667 14.3333 14.5174 14.3333 14.3333V6.33333C14.3333 6.14924 14.1841 6 14 6H2C1.81591 6 1.66667 6.14924 1.66667 6.33333V14.3333C1.66667 14.5174 1.81591 14.6667 2 14.6667Z" fill="black"/>
</svg>
